<?xml version="1.0"?>
<svg xmlns="http://www.w3.org/2000/svg" xmlns:xlink="http://www.w3.org/1999/xlink" version="1.1" id="Capa_1" x="0px" y="0px" width="512px" height="512px" viewBox="0 0 600.27 600.27" style="enable-background:new 0 0 600.27 600.27;" xml:space="preserve"><g><g>
	<g>
		<path d="M530.1,13.383c-8.033-8.034-18.93-12.547-30.293-12.547c-11.361,0-22.258,4.513-30.293,12.547l-66.25,66.25H58.64    c-32.059,0-58.14,26.082-58.14,58.14v403.519c0,32.059,26.082,58.141,58.14,58.141h403.518c32.059,0,58.141-26.082,58.141-58.141    V198.014l66.924-66.923c8.033-8.034,12.547-18.93,12.547-30.292c0-11.363-4.514-22.259-12.547-30.293L530.1,13.383z     M453.107,122.474l24.352,24.351l16.723,16.722l-16.723,16.723L286.735,370.992c-2.153,2.154-4.9,3.615-7.889,4.199l-48.547,9.473    c-0.807,0.156-1.606,0.232-2.389,0.232c-7.475,0-13.475-6.873-11.968-14.59l9.472-48.549c0.583-2.988,2.045-5.734,4.198-7.889    l191.396-191.395l16.051-16.05L453.107,122.474z M524.475,133.255l-4.951-4.95L471.629,80.41l-4.277-4.277l32.455-32.457    l57.123,57.123L524.475,133.255z M477.459,541.293c0,8.451-6.85,15.301-15.299,15.301H58.64c-8.45,0-15.3-6.85-15.3-15.301    V137.774c0-8.45,6.85-15.3,15.3-15.3h301.784L199.32,283.577c-8.21,8.21-13.728,18.576-15.952,29.974l-9.473,48.551    c-3.163,16.211,1.041,32.816,11.535,45.555c10.511,12.762,25.996,20.08,42.481,20.08c3.539,0,7.102-0.346,10.59-1.025l48.55-9.473    c11.401-2.227,21.767-7.742,29.978-15.955l160.43-160.43V541.293L477.459,541.293L477.459,541.293z" data-original="#000000" class="active-path" data-old_color="#000000" fill="#C7197F"/>
		<path d="M462.158,599.934H58.64C26.306,599.934,0,573.628,0,541.293V137.774c0-32.334,26.306-58.64,58.64-58.64h344.417    L469.16,13.03c8.187-8.186,19.07-12.694,30.646-12.694c11.578,0,22.462,4.508,30.646,12.694l57.123,57.122    c8.186,8.187,12.693,19.07,12.693,30.646c0,11.577-4.508,22.46-12.693,30.646l-66.777,66.777v343.072    C520.799,573.628,494.493,599.934,462.158,599.934z M58.64,80.134C26.857,80.134,1,105.991,1,137.774v403.519    c0,31.783,25.857,57.641,57.64,57.641h403.518c31.783,0,57.641-25.857,57.641-57.641V197.807l67.07-67.07    c7.996-7.997,12.4-18.629,12.4-29.939c0-11.309-4.404-21.942-12.4-29.939l-57.123-57.122C521.75,5.74,511.117,1.336,499.807,1.336    c-11.309,0-21.941,4.404-29.939,12.401l-66.396,66.397H58.64z M462.16,557.094H58.64c-8.712,0-15.8-7.088-15.8-15.801V137.774    c0-8.712,7.088-15.8,15.8-15.8h302.991L199.674,283.93c-8.141,8.14-13.609,18.417-15.815,29.716l-9.473,48.551    c-3.135,16.065,1.031,32.519,11.43,45.141c10.416,12.646,25.759,19.898,42.095,19.898c3.503,0,7.034-0.342,10.495-1.017    l48.55-9.473c11.305-2.207,21.582-7.677,29.72-15.817l161.283-161.283v301.646C477.959,550.006,470.872,557.094,462.16,557.094z     M58.64,122.974c-8.161,0-14.8,6.639-14.8,14.8v403.519c0,8.161,6.639,14.801,14.8,14.801h403.52    c8.16,0,14.799-6.64,14.799-14.801V242.061L317.383,401.637c-8.279,8.281-18.735,13.847-30.236,16.092l-48.55,9.474    c-3.523,0.687-7.119,1.034-10.686,1.034c-16.637,0-32.261-7.386-42.867-20.263c-10.589-12.854-14.832-29.608-11.64-45.968    l9.473-48.551c2.244-11.496,7.807-21.951,16.089-30.232l160.25-160.249H58.64z M227.91,385.396c-3.79,0-7.362-1.698-9.801-4.659    c-2.421-2.939-3.39-6.776-2.658-10.526l9.472-48.549c0.604-3.097,2.104-5.914,4.335-8.146l207.8-207.799l57.83,57.83    l-207.8,207.799c-2.229,2.231-5.047,3.73-8.146,4.336l-48.547,9.474C229.566,385.315,228.73,385.396,227.91,385.396z     M437.059,107.131L229.966,314.223c-2.09,2.092-3.495,4.73-4.061,7.631l-9.472,48.549c-0.674,3.456,0.218,6.991,2.448,9.699    c2.735,3.321,7.031,4.902,11.323,4.071l48.547-9.473c2.903-0.566,5.542-1.972,7.631-4.062l207.093-207.092L437.059,107.131z     M524.475,133.962l-57.83-57.83l33.162-33.164l57.83,57.83L524.475,133.962z M468.059,76.132l56.416,56.416l31.748-31.749    l-56.416-56.416L468.059,76.132z" data-original="#000000" class="active-path" data-old_color="#000000" fill="#C7197F"/>
	</g>
</g></g> </svg>
